<?xml version="1.0" encoding="utf-8"?>
<!-- Generator: Adobe Illustrator 26.0.1, SVG Export Plug-In . SVG Version: 6.00 Build 0)  -->
<svg version="1.1" id="Layer_1" xmlns="http://www.w3.org/2000/svg" xmlns:xlink="http://www.w3.org/1999/xlink" x="0px" y="0px"
	 viewBox="0 0 1000 254" style="enable-background:new 0 0 1000 254;" xml:space="preserve">
<style type="text/css">
	.st0{fill:#FFFFFF;}
</style>
<g>
	<path class="st0" d="M0,36.95c1.41,0.36,2.85,0.26,4.29,0.27c9.64,0.01,19.28,0.01,28.92,0.01c0.92,0,1.85-0.01,2.77,0.01
		c4,0.06,4.14,0.17,4.14,4.19c0.01,44.18,0.01,88.37,0.01,132.55c0,1.33,0.01,2.67,0.09,3.99c0.07,1.19,0.73,1.89,1.95,1.95
		c1.23,0.06,2.46,0.11,3.69,0.11c20.51,0.01,41.02,0,61.54,0.01c5.2,0,5.2,0.02,5.21,5.31c0,9.12,0.01,18.25-0.01,27.37
		c-0.01,3.41-0.28,3.65-3.68,3.73c-1.13,0.03-2.26,0.01-3.38,0.01c-33.44,0-66.87,0-100.31,0.01c-1.74,0-3.49-0.13-5.21,0.23
		C0,156.77,0,96.86,0,36.95z"/>
	<path class="st0" d="M746.27,126.74c0-35.18,0-70.37,0-105.55c0-3.39,0.05-6.75,1.55-9.93c3.38-7.15,8.92-11.18,16.88-11.21
		c24.42-0.09,48.85-0.04,73.27-0.04c47.93,0,95.85-0.01,143.78,0.02c7.19,0,12.52,3.38,16,9.6c1.47,2.62,2.03,5.56,2.22,8.56
		c0.05,0.82,0.02,1.64,0.02,2.46c0,70.78,0,141.55,0.01,212.33c0,4.16-0.52,8.12-2.71,11.8c-1.52,2.54-3.5,4.58-5.96,6.05
		c-3.28,1.96-6.84,3.16-10.77,3.16c-71.53-0.02-143.06-0.01-214.59-0.02c-9.07,0-17.15-5.73-19.11-14.36
		c-0.58-2.53-0.59-5.08-0.59-7.63C746.26,196.9,746.27,161.82,746.27,126.74z M845.42,155.74c0,9.54,0,19.08,0,28.62
		c0,9.33-0.01,18.67,0.01,28c0.01,3.55,0.14,3.67,3.61,3.69c5.34,0.03,10.67,0.01,16.01,0.01c4.82,0,9.65,0.03,14.47-0.03
		c2.4-0.03,2.66-0.34,2.81-2.65c0.06-0.92,0.03-1.85,0.03-2.77c0-12.41,0.03-24.82-0.01-37.23c-0.02-9.22-0.08-18.44,0.77-27.63
		c0.33-3.51,1.19-6.86,2.63-10.05c1.32-2.93,3.14-5.43,5.88-7.31c5.54-3.79,11.66-4.21,17.99-3.35c5.98,0.81,10.05,4.18,12.49,9.69
		c2.13,4.8,2.67,9.88,2.69,15c0.09,20.1,0.04,40.21,0.04,60.31c0,1.13-0.03,2.26,0.04,3.38c0.13,2.25,0.35,2.46,2.51,2.6
		c0.72,0.05,1.44,0.03,2.15,0.03c9.44,0,18.88,0.01,28.32,0c4.52,0,4.53-0.01,4.53-4.67c0.01-15.69-0.04-31.39,0.02-47.08
		c0.04-10.34-0.02-20.68-1.25-30.97c-1.1-9.22-2.82-18.22-8.35-26.02c-3.46-4.88-7.84-8.63-13.34-10.98
		c-7.37-3.15-15.14-4.37-23.1-4.21c-13.03,0.27-23.82,5.26-31.87,15.72c-0.56,0.73-1.02,1.54-1.59,2.27
		c-0.36,0.47-0.78,1.1-1.48,0.82c-0.64-0.26-0.67-0.97-0.7-1.59c-0.03-0.72-0.04-1.44-0.04-2.15c-0.01-2.87,0.03-5.74-0.03-8.62
		c-0.06-3-0.35-3.25-3.43-3.37c-0.41-0.02-0.82-0.01-1.23-0.01c-8.62,0-17.24-0.01-25.86,0c-4.71,0.01-4.74,0.04-4.74,4.86
		C845.42,118.61,845.42,137.18,845.42,155.74z M821.4,155.77c0-15.58,0-31.16,0-46.75c0-3.49,0.04-6.97-0.02-10.46
		c-0.05-2.96-0.41-3.26-3.44-3.37c-0.31-0.01-0.62-0.01-0.92-0.01c-9.33,0-18.67-0.01-28,0.01c-4.48,0.01-4.55,0.08-4.55,4.73
		c-0.01,37.21,0,74.43,0,111.64c0,0.82,0.04,1.64,0.06,2.46c0.03,1.41,0.79,2.02,2.15,2.01c0.82-0.01,1.64,0.03,2.46,0.03
		c9.23,0,18.46,0.01,27.69,0c4.56,0,4.57-0.01,4.58-4.62C821.4,192.88,821.4,174.33,821.4,155.77z M802.63,77.94
		c10.86,0.84,21.84-8.63,21.78-21.41c-0.06-12.15-9.48-21.15-21.36-21.35c-12.01-0.2-21.15,9.92-21.59,21.09
		C781.02,67.5,791.63,78.78,802.63,77.94z"/>
	<path class="st0" d="M709.32,127c0,28.11,0,56.21,0,84.32c0,5.11-0.01,5.12-5.09,5.12c-8.31,0.01-16.63,0-24.94,0
		c-0.72,0-1.44,0.02-2.15-0.03c-2.5-0.17-2.83-0.46-2.9-2.93c-0.07-2.56-0.02-5.13-0.03-7.69c0-0.72,0-1.44-0.03-2.15
		c-0.03-0.6,0.04-1.32-0.71-1.53c-0.59-0.16-0.92,0.35-1.23,0.75c-1.52,1.95-3.4,3.52-5.27,5.12c-5.96,5.1-12.74,8.49-20.41,10.13
		c-9.02,1.93-17.94,1.24-26.81-0.88c-10.02-2.39-18.65-7.34-25.83-14.67c-8.1-8.26-12.9-18.3-15.55-29.52
		c-2.1-8.93-1.96-17.97-1.09-26.91c0.83-8.55,3.37-16.78,7.3-24.59c2.94-5.85,6.58-11.17,11.09-15.74
		c4.98-5.04,10.89-8.93,17.62-11.5c9.75-3.72,19.71-4.3,29.93-2.7c6.54,1.03,12.77,2.85,18.47,6.32c2.13,1.3,3.99,2.86,5.7,4.64
		c0.78,0.81,1.58,1.62,2.45,2.32c0.59,0.47,1.22,0.31,1.32-0.54c0.12-1.01,0.13-2.04,0.13-3.07c0.01-19.69,0-39.39,0.01-59.08
		c0-4.96,0.01-4.98,4.92-4.98c9.34-0.01,18.68,0,28.02,0c0.41,0,0.82,0,1.23,0.01c3.56,0.08,3.82,0.3,3.82,3.92
		C709.33,69.76,709.32,98.38,709.32,127z M644.48,185.64c0.74,0,1.67,0.05,2.59-0.01c12.38-0.8,21.99-7.41,25.63-19.39
		c2.32-7.64,2.1-15.36-0.3-22.98c-1.74-5.51-4.81-10.07-9.6-13.45c-6.71-4.74-14.24-6.1-22.21-5.31
		c-5.69,0.56-11.01,2.37-15.45,6.17c-5.24,4.49-8.35,10.12-9.6,16.97c-1.59,8.67-0.83,16.83,3.53,24.62
		c2.65,4.74,6.4,8.15,11.23,10.46C634.73,184.83,639.39,185.83,644.48,185.64z"/>
	<path class="st0" d="M361.94,158.65c-0.59,1.08-0.35,2.32-0.35,3.5c-0.02,16.51-0.01,33.03-0.02,49.54c0,4.73-0.02,4.74-4.83,4.75
		c-9.54,0.01-19.09,0-28.63,0c-0.41,0-0.82,0-1.23-0.01c-3.17-0.11-3.43-0.38-3.49-3.63c-0.02-0.92-0.01-1.85-0.01-2.77
		c0-55.49,0-110.98,0-166.47c0-1.23-0.04-2.46,0.04-3.69c0.12-2.06,0.49-2.42,2.61-2.6c0.92-0.08,1.85-0.05,2.77-0.05
		c9.13,0,18.27,0,27.4,0c0.92,0,1.85-0.03,2.77,0.05c2.16,0.19,2.45,0.49,2.58,2.61c0.06,1.12,0.03,2.26,0.03,3.38
		c0,31.59,0,63.18,0.01,94.78c0,1.28-0.24,2.63,0.58,4.23c2.44-2.69,4.72-5.12,6.9-7.63c3.5-4.01,6.92-8.08,10.39-12.11
		c3.67-4.26,7.34-8.52,11.02-12.77c3.88-4.48,7.82-8.91,11.65-13.43c1.09-1.29,2.29-1.88,3.96-1.87
		c13.44,0.03,26.89,0.02,40.33,0.01c0.1,0,0.21,0,0.31,0.01c0.89,0.1,2.04-0.17,2.44,0.84c0.34,0.87-0.62,1.41-1.14,2.01
		c-5.22,6.03-10.41,12.08-15.69,18.06c-6.5,7.36-13.11,14.63-19.6,22c-3.52,3.99-6.85,8.14-10.35,12.15
		c-1.28,1.46-0.67,2.6,0.23,3.82c2.8,3.79,5.59,7.59,8.39,11.38c3.9,5.27,7.81,10.53,11.73,15.78c3.98,5.33,7.99,10.64,11.94,15.99
		c4.31,5.85,8.59,11.71,12.83,17.61c1.24,1.73,0.98,2.17-1.22,2.28c-1.64,0.09-3.28,0.04-4.92,0.04c-12.01,0-24.01-0.07-36.02,0.05
		c-2.88,0.03-4.68-0.92-6.26-3.37c-6.09-9.48-12.35-18.84-18.62-28.21c-5.58-8.34-11.24-16.63-16.87-24.95
		C363.22,159.38,363.04,158.6,361.94,158.65z"/>
	<path class="st0" d="M523.04,167.44c-13.14,0-26.27-0.01-39.41,0c-3.87,0-4.09,0.42-2.91,4.05c3.73,11.46,15.26,19.46,27.38,18.91
		c9.55-0.43,17.6-4.34,23.84-11.72c0.2-0.23,0.35-0.5,0.55-0.74c1.89-2.36,1.9-2.37,4.37-0.58c7.12,5.17,14.23,10.36,21.35,15.55
		c0.25,0.18,0.48,0.38,0.71,0.58c1.88,1.61,1.98,1.77,0.36,3.68c-4.21,4.96-9.2,9.06-14.72,12.47c-5.78,3.58-11.99,6.22-18.64,7.76
		c-3.89,0.9-7.8,1.73-11.83,1.73c-2.36,0-4.72,0.01-7.08,0c-12.12-0.02-23.49-2.84-34.12-8.79c-15.98-8.93-25.84-22.41-29.86-40.08
		c-1.97-8.63-1.86-17.43-0.58-26.26c0.78-5.44,2.27-10.56,4.4-15.57c4.95-11.6,13-20.47,23.66-27.07
		c8.69-5.38,18.16-8.33,28.25-9.74c11.07-1.54,21.89-0.84,32.37,3.07c6.87,2.56,12.96,6.35,18.16,11.73
		c4.41,4.57,8.05,9.57,10.64,15.29c2.71,5.98,4.48,12.27,5.56,18.78c1.3,7.85,0.91,15.73,0.95,23.61c0.01,3.08-0.27,3.33-3.37,3.33
		C549.72,167.45,536.38,167.44,523.04,167.44C523.04,167.44,523.04,167.44,523.04,167.44z M504.09,140.97
		C504.09,140.97,504.09,140.97,504.09,140.97c6.98,0,13.96,0.02,20.93-0.01c3.26-0.01,3.79-0.63,3.2-3.85
		c-1.03-5.66-3.71-10.37-8.35-13.87c-4.04-3.04-8.51-4.59-13.65-4.81c-9.53-0.4-16.89,3.35-22.45,10.88
		c-1.9,2.58-3.06,5.56-3.73,8.7c-0.48,2.26-0.06,2.79,2.19,2.93c0.72,0.04,1.44,0.02,2.15,0.02
		C490.95,140.97,497.52,140.97,504.09,140.97z"/>
	<path class="st0" d="M224.73,109.44c2.1-2.15,3.69-4.41,5.67-6.33c7.72-7.48,16.85-11.31,27.66-11.42
		c6.82-0.07,13.47,0.54,20.03,2.51c11.06,3.32,18.24,10.68,22.26,21.22c2.45,6.43,3.47,13.19,4.07,20.08
		c0.78,8.92,0.4,17.82,0.47,26.72c0.12,16.51,0.04,33.02,0.03,49.53c0,4.65-0.03,4.68-4.58,4.69c-9.54,0.02-19.08,0.01-28.63,0
		c-0.62,0-1.23,0.01-1.85-0.04c-2.28-0.2-2.57-0.5-2.69-2.83c-0.05-1.02-0.02-2.05-0.02-3.08c0-17.84-0.04-35.69,0.02-53.53
		c0.02-6.17-0.38-12.27-1.82-18.28c-1.9-7.96-7.46-13.14-15.81-13.31c-2.25-0.04-4.55-0.14-6.76,0.21
		c-5.89,0.94-10.45,3.94-13.3,9.3c-3.06,5.77-3.94,12.06-3.98,18.43c-0.1,19.38-0.04,38.77-0.04,58.15c0,4.96-0.01,4.97-4.91,4.98
		c-9.34,0.01-18.67,0-28.01,0c-0.82,0-1.65,0.03-2.46-0.07c-1.91-0.22-2.21-0.55-2.35-2.52c-0.06-0.92-0.03-1.85-0.03-2.77
		c0-37.13,0-74.25,0-111.38c0-5.23,0.01-5.24,5.25-5.25c8.62-0.01,17.24,0,25.86,0c0.82,0,1.64-0.02,2.46,0.04
		c2.3,0.17,2.68,0.5,2.73,2.79c0.08,2.97,0,5.95,0.05,8.92C224.1,107.19,223.79,108.25,224.73,109.44z"/>
	<path class="st0" d="M167.41,155.48c0,18.76,0,37.51,0,56.27c0,4.62-0.05,4.67-4.59,4.68c-9.64,0.02-19.28,0.01-28.92,0.01
		c-0.31,0-0.62,0-0.92-0.01c-3.48-0.09-3.7-0.28-3.74-3.67c-0.03-3.48-0.01-6.97-0.01-10.45c0-34.23,0-68.47,0-102.7
		c0-5.12,0.01-5.14,5.04-5.14c9.33-0.01,18.66,0,28,0c0.92,0,1.85-0.03,2.77,0.07c1.88,0.2,2.22,0.57,2.35,2.53
		c0.07,1.02,0.04,2.05,0.04,3.07C167.41,118.58,167.41,137.03,167.41,155.48z"/>
	<path class="st0" d="M170.06,56.97c0.51,11.33-9.52,21.78-21.99,21.61c-12.71-0.18-21.8-9.78-21.88-21.83
		c-0.08-12.94,9.87-22.08,21.96-22.15C161.22,34.53,170.54,45.09,170.06,56.97z"/>
</g>
</svg>
