<?xml version="1.0" encoding="utf-8"?>
<!-- Generator: Adobe Illustrator 26.0.1, SVG Export Plug-In . SVG Version: 6.00 Build 0)  -->
<svg version="1.1" id="Layer_1" xmlns="http://www.w3.org/2000/svg" xmlns:xlink="http://www.w3.org/1999/xlink" x="0px" y="0px"
	 viewBox="0 0 500 73" style="enable-background:new 0 0 500 73;" xml:space="preserve">
<style type="text/css">
	.st0{fill:#FFFFFF;}
</style>
<path class="st0" d="M70.44,51.58c1.11,2.65,2.38,3.85,4.13,3.77c0.64-0.03,0.95-0.05,1.59-0.08h16.22h1.03
	c2.78,0.08,4.37,1.45,4.37,3.85c0,3.13-2.78,5.53-6.12,5.53h-1.03H72.67c-4.69,0-8.43-2.57-10.26-6.98
	C57.93,46.76,55.69,41.31,51.2,30.4c-2.07,5.17-3.1,7.75-5.17,12.92c-1.27,3.21-2.86,6.9-3.66,8.82
	C36.65,65.7,29.1,72.03,18.68,72.03C7.55,72.03,0,64.57,0,53.5c0-15.88,14.39-29.28,31.17-29.28c4.61,0,7.31,1.76,7.31,4.89
	c0,3.53-2.25,4.95-8.43,5.29c-10.69,0.6-19.08,8.5-19.08,18.21c0,5.53,3.34,9.06,8.51,9.06c2.94,0,5.49-1.28,7.95-4.01
	c1.43-1.52,2.78-3.69,4.53-7.3c1.03-2.17,2.15-4.65,3.18-7.06c5.37-13.38,8.06-20.07,13.44-33.45h-4.06h-1.03
	c-2.78-0.08-4.3-1.44-4.3-3.85c0-3.05,2.7-5.53,6.12-5.53h1.03h12.88c4.06,0,4.93,0.08,6.52,0.48c6.04,1.28,9.86,6.42,9.86,13.16
	c0,5.21-2.38,10.59-6.28,14.12c-2.15,1.92-3.9,2.81-7,3.69C65.58,39.79,67.2,43.72,70.44,51.58 M54.7,24.47
	c3.5-0.16,4.85-0.56,6.52-1.69c2.7-1.76,4.21-4.49,4.21-7.54c0-3.45-1.83-5.37-5.01-5.37h-0.95c-2.35,5.87-3.53,8.81-5.88,14.68
	C54.03,24.51,54.26,24.5,54.7,24.47 M82.78,52.46c-3.26-2.25-5.25-6.34-5.25-10.75c0-9.71,8.27-18.21,17.73-18.21
	c7.71,0,13.12,5.29,13.12,12.75c0,6.18-3.34,12.75-8.03,15.8c-2.31,1.52-4.61,1.93-9.46,1.93C86.28,53.98,84.53,53.66,82.78,52.46
	 M94.63,31.85c-3.97,0-7.71,4.49-7.71,9.23c0,3.05,1.59,4.41,4.93,4.41c1.91,0,2.78-0.16,3.74-0.96c1.99-1.52,3.58-4.97,3.58-7.86
	C99.16,33.85,97.25,31.85,94.63,31.85 M123.17,36.5c0.32-0.71,0.48-1.06,0.8-1.77c0.7,1.35,1.05,2.02,1.75,3.37
	c0.72,1.53,0.95,2.25,0.95,3.29c0,2.73-1.75,4.01-5.41,4.01h-4.53h-0.87c-3.1,0-5.64,2.33-5.64,5.05c0,2.25,1.43,3.45,3.98,3.53
	h0.95h8.67c0.4,0,1.22-0.12,2.38-0.4c2.22-0.53,3.26-0.8,4.29-1.44c3.34-2.17,5.49-6.02,5.49-9.95c0-2.81-1.11-5.69-3.34-8.9
	c-0.89-1.25-1.34-1.88-2.23-3.13c-1.27-1.76-1.83-3.29-1.83-4.97c0-0.48,0.06-1.07,0.16-1.6c0.13-0.7,0.24-1.28,0.24-1.61
	c0-1.77-1.75-3.21-3.74-3.21c-1.99,0-3.42,1.12-4.69,3.69c-2.07,4.24-3.1,6.35-5.17,10.59c-0.72,1.45-1.11,2.81-1.11,3.69
	c0,1.85,1.99,3.61,4.13,3.61C120.47,40.35,122.14,38.98,123.17,36.5 M151.64,36.5c0.32-0.71,0.48-1.06,0.8-1.77
	c0.7,1.35,1.05,2.02,1.75,3.37c0.72,1.53,0.95,2.25,0.95,3.29c0,2.73-1.75,4.01-5.41,4.01h-4.53h-0.87c-3.1,0-5.64,2.33-5.64,5.05
	c0,2.25,1.43,3.45,3.98,3.53h0.95h8.67c0.4,0,1.22-0.12,2.38-0.4c2.22-0.53,3.26-0.8,4.29-1.44c3.34-2.17,5.49-6.02,5.49-9.95
	c0-2.81-1.11-5.69-3.34-8.9c-0.89-1.25-1.34-1.88-2.23-3.13c-1.27-1.76-1.83-3.29-1.83-4.97c0-0.48,0.06-1.07,0.16-1.6
	c0.13-0.7,0.24-1.28,0.24-1.61c0-1.77-1.75-3.21-3.74-3.21c-1.99,0-3.42,1.12-4.69,3.69c-2.07,4.24-3.1,6.35-5.17,10.59
	c-0.72,1.45-1.11,2.81-1.11,3.69c0,1.85,1.99,3.61,4.13,3.61C148.93,40.35,150.6,38.98,151.64,36.5 M233.61,33.93
	c-5.12,8.98-7.68,13.48-12.8,22.46c-1.03,1.85-3.1,4.73-4.77,6.9c-4.61,5.94-10.42,9.07-16.86,9.07c-10.18,0-17.97-8.42-17.97-19.33
	c0-9.47,6.68-19.01,16.85-24.06c6.44-3.21,13.52-4.41,26.24-4.41h2.86c1.24-2.28,1.86-3.42,3.1-5.69
	c4.14-7.62,9.62-13.23,15.58-15.8c3.58-1.52,9.94-2.57,15.98-2.57c2.86,0,4.77,1.68,4.77,4.09c0,0.88-0.16,1.52-0.8,3.13
	c-2.67,6.74-4.01,10.11-6.68,16.84h2.94h1.03c2.86,0.08,4.37,1.44,4.37,3.85c0,3.05-2.7,5.54-6.12,5.54h-1.04h-4.93
	c-1.72,4.27-2.58,6.4-4.29,10.67h6.28h1.03c2.78,0.08,4.37,1.44,4.37,3.85c0,3.05-2.78,5.54-6.12,5.54h-1.03h-8.35
	c-4.53,0-7.55-2.57-7.55-6.34c0-1.69,0.32-2.89,1.59-6.02c1.24-3.08,1.86-4.62,3.1-7.7H233.61z M218.59,33.93
	c-7.15,0-13.52,1.54-17.65,4.17c-5.55,3.53-9.06,9.31-9.06,14.68c0,5.13,3.58,9.06,8.19,9.06c2.78,0,5.17-1.36,7.71-4.25
	c0.95-1.2,2.07-2.65,2.55-3.61c4.61-8.02,6.92-12.03,11.53-20.05H218.59z M253.73,10.67c-5.4,0.32-8.51,2.97-13.36,11.23
	c-0.6,1.06-0.91,1.59-1.51,2.65h9.3L253.73,10.67z M297.95,46.93c-2.39-3.79-3.58-5.68-5.96-9.46c2.29-1.73,3.43-2.6,5.72-4.33
	c2.94-2.17,3.74-3.37,3.74-5.45c0-2.17-1.59-3.77-3.74-3.77c-1.35,0-2.38,0.48-4.69,2.17c-3.5,2.6-5.25,3.9-8.75,6.5l9.94-24.63
	l0.4-1.04c0.4-0.88,0.64-1.85,0.64-2.65c0-2.09-1.75-3.77-3.98-3.77c-2.47,0-4.45,1.52-5.73,4.41l-0.4,1.04
	c-6.65,16.52-9.97,24.79-16.62,41.31c-0.16,0.45-0.24,0.67-0.4,1.12c-0.4,0.88-0.64,1.84-0.64,2.65c0,2.09,1.75,3.69,3.98,3.69
	c2.86,0,4.53-1.45,6.12-5.37c1.75-4.37,2.62-6.55,4.37-10.91c3.59,5.45,5.39,8.18,8.99,13.64c0.19,0.29,0.29,0.43,0.48,0.72
	c0.71,1.12,1.67,1.68,2.86,1.68c2.46,0,4.85-2.25,4.85-4.57C299.14,48.93,298.9,48.37,297.95,46.93 M316.16,45.4h11.53h0.95
	c2.54,0.08,3.98,1.28,3.98,3.53c0,2.81-2.55,5.05-5.64,5.05h-0.95h-10.97c-3.9,0-5.96-0.48-8.03-2.01
	c-2.94-2.25-4.53-5.69-4.53-10.11c0-10.03,7.87-18.37,17.25-18.37c6.68,0,11.13,3.93,11.13,9.79c0,3.69-1.99,6.9-5.17,8.26
	c-1.75,0.8-2.86,0.96-6.12,0.96h-7.79C311.78,44.44,313.3,45.4,316.16,45.4 M317.91,35.38c2.86,0,4.06-0.56,4.06-1.77
	c0-1.2-1.11-2.17-2.62-2.17c-2.39,0-4.37,1.36-5.73,3.93H317.91z M360.45,23.5c-2.31,0-3.34,0.32-6.76,2.25
	c2.96-7.35,4.44-11.02,7.39-18.37c0.16-0.42,0.24-0.63,0.4-1.04c0.32-0.88,0.56-1.85,0.56-2.65c0-2.09-1.67-3.69-3.9-3.69
	c-2.78,0-4.45,1.53-6.04,5.37c-6.74,16.81-10.11,25.22-16.86,42.03c-0.19,0.42-0.29,0.62-0.48,1.04c-0.32,0.88-0.56,1.85-0.56,2.65
	c0,2.09,1.67,3.61,3.9,3.61c2.46,0,4.45-1.45,5.64-4.25c0.16-0.42,0.24-0.63,0.4-1.04c1.72-4.33,2.58-6.5,4.29-10.83
	c1.91-4.49,4.06-6.74,6.76-6.74c1.67,0,2.94,0.88,2.94,2.25c0,0.64-0.16,1.28-0.71,2.49c-1.4,3.53-2.1,5.29-3.5,8.82
	c-0.19,0.42-0.29,0.63-0.48,1.04c-0.24,0.72-0.4,1.53-0.4,2.41c0,2.97,2.38,5.13,5.8,5.13h7.79h0.95c3.1,0,5.64-2.25,5.64-5.05
	c0-2.25-1.43-3.45-3.98-3.53h-0.95h-4.45L368,35.21c0.48-1.28,0.87-3.13,0.87-4.41C368.87,26.63,365.3,23.5,360.45,23.5
	 M402.67,45.4c2.22-5.55,3.34-8.33,5.57-13.88c0.87-2.09,1.03-2.73,1.03-3.77c0-2.09-1.75-3.69-3.98-3.69
	c-2.86,0-4.53,1.45-6.12,5.46c-1.97,4.91-2.96,7.36-4.93,12.27c-0.56,1.36-1.99,2.73-3.58,3.37c-0.48,0.24-1.27,0.32-2.78,0.32
	c-1.27,0-2.23-0.72-2.23-1.77c0-0.24,0.16-0.8,0.4-1.52c0.16-0.48,0.24-0.72,0.4-1.2c1.65-4.01,2.48-6.01,4.13-10.03
	c0.16-0.42,0.24-0.63,0.4-1.04c0.4-0.96,0.64-1.93,0.64-2.73c0-2.09-1.75-3.69-3.98-3.69c-2.78,0-4.45,1.52-6.04,5.45
	c-2.13,5.23-3.19,7.84-5.33,13.07c-0.64,1.69-1.03,3.05-1.03,4.41c0,2.33,1.43,5.05,3.26,6.26c0.95,0.56,3.18,1.28,4.14,1.28H389
	c1.99,0,3.82-0.88,5.25-2.57c0.56,1.45,2.23,2.57,3.82,2.57h7.47h0.95c3.1,0,5.57-2.25,5.57-5.05c0-2.25-1.35-3.45-3.97-3.53h-0.95
	H402.67z M421.84,35.86c0.51-1.28,0.76-1.93,1.27-3.21h4.06c-4.37,4.89-5.96,7.94-5.96,11.63c0,4.49,2.38,8.18,5.88,9.15
	c1.27,0.32,2.38,0.56,2.94,0.56h7.63h0.95c3.1,0,5.57-2.25,5.57-5.05c0-2.25-1.43-3.45-3.98-3.53h-0.95h-4.85
	c-2.31,0-3.58-1.2-3.58-3.29c0-1.12,0.49-2.25,1.91-4.33c1.2-1.75,1.83-2.49,4.21-4.81c0.19-0.13,0.29-0.19,0.48-0.32
	c2.23-0.08,2.94-0.16,3.66-0.56c1.43-0.64,2.78-2.73,2.78-4.41c0-2.33-1.51-3.61-4.13-3.61h-0.95h-9.14c-2.39,0-2.62-0.16-2.94-1.44
	c-0.13-0.48-0.19-0.72-0.32-1.2c-0.4-1.77-1.67-2.73-3.58-2.73c-2.07,0-3.26,1.04-4.45,3.93c-1.75,4.36-2.62,6.55-4.37,10.91
	c-0.71,1.85-0.87,2.33-0.87,3.13c0,2.01,1.83,3.61,3.97,3.61C419.21,40.27,420.56,39.07,421.84,35.86 M458.73,36.5
	c0.32-0.71,0.48-1.06,0.8-1.77c0.7,1.35,1.05,2.02,1.75,3.37c0.72,1.53,0.95,2.25,0.95,3.29c0,2.73-1.75,4.01-5.41,4.01h-4.53h-0.87
	c-3.1,0-5.65,2.33-5.65,5.05c0,2.25,1.43,3.45,3.97,3.53h0.95h8.67c0.4,0,1.22-0.12,2.39-0.4c2.23-0.53,3.26-0.8,4.29-1.44
	c3.34-2.17,5.49-6.02,5.49-9.95c0-2.81-1.11-5.69-3.34-8.9c-0.89-1.25-1.34-1.88-2.23-3.13c-1.27-1.76-1.83-3.29-1.83-4.97
	c0-0.48,0.06-1.07,0.16-1.6c0.13-0.7,0.24-1.28,0.24-1.61c0-1.77-1.75-3.21-3.74-3.21c-1.99,0-3.42,1.12-4.69,3.69l-5.17,10.59
	c-0.72,1.45-1.11,2.81-1.11,3.69c0,1.85,1.99,3.61,4.13,3.61C456.03,40.35,457.7,38.98,458.73,36.5 M493.88,24.06
	c0.57-1.25,0.86-1.88,1.43-3.13c0.63-1.36,0.95-2.81,0.95-3.77c0-2.09-1.67-3.69-3.9-3.69c-2.47,0-4.45,1.53-5.64,4.41
	c-0.19,0.42-0.29,0.63-0.48,1.04c-0.83,2.06-1.24,3.08-2.07,5.13h-1.75h-0.95c-3.1,0-5.64,2.25-5.64,5.05
	c0,2.41,1.59,3.53,4.93,3.53c-1.81,4.53-2.72,6.79-4.53,11.31c-0.29,0.67-0.43,1.01-0.71,1.69c-0.48,1.12-0.71,2.25-0.71,3.21
	c0,3.13,2.46,5.13,6.36,5.13h6.92h0.95c3.1,0,5.64-2.25,5.64-5.05c0-2.25-1.43-3.45-3.98-3.53h-0.95h-4.29
	c2.07-5.1,3.1-7.65,5.17-12.76h2.78h0.95c3.1,0,5.64-2.33,5.64-5.13c0-2.17-1.43-3.45-3.98-3.45h-0.95H493.88z M250.54,68.28
	c-0.22,0.29-0.32,0.43-0.54,0.72c0,0,0.93,1.07,2.7,1.07c1.46,0,2.49-0.87,2.49-2.08c0-2.45-3.93-2.01-3.93-3.64
	c0-0.83,0.71-1.15,1.45-1.15c1.2,0,1.83,0.68,1.83,0.68c0.18-0.31,0.27-0.46,0.45-0.77c0,0-0.71-0.81-2.25-0.81
	c-1.32,0-2.49,0.72-2.49,2.05c0,2.42,3.93,2.02,3.93,3.64c0,0.78-0.68,1.18-1.47,1.18C251.35,69.18,250.54,68.28,250.54,68.28
	 M263.73,62.31c2.01,0,3.04,1.58,3.04,3.42c0,0.18-0.03,0.51-0.03,0.51h-5.6c0.04,1.9,1.32,2.93,2.83,2.93c1.33,0,2.22-0.9,2.22-0.9
	c0.18,0.31,0.27,0.46,0.45,0.77c0,0-1.05,1.03-2.7,1.03c-2.17,0-3.81-1.59-3.81-3.88C260.14,63.77,261.76,62.31,263.73,62.31
	 M265.77,65.42c-0.06-1.55-0.99-2.27-2.07-2.27c-1.22,0-2.28,0.78-2.51,2.27H265.77z M272.28,69.9h0.99v-3.55
	c0-0.35,0.03-0.69,0.12-1c0.33-1.22,1.41-2.09,2.65-2.09c1.41,0,1.58,1.03,1.58,2.2v4.45h0.99v-4.72c0-1.83-0.64-2.87-2.44-2.87
	c-1.72,0-2.65,1.19-2.91,1.87h-0.03c0,0,0.03-0.27,0.03-0.59v-1.11h-0.97V69.9z M284.48,59.54h1.03v1.25h-1.03V59.54z M284.51,62.49
	h0.99v7.41h-0.99V62.49z M294.82,62.32c2.13,0,3.85,1.65,3.85,3.85c0,2.24-1.73,3.92-3.85,3.92c-2.13,0-3.86-1.68-3.86-3.92
	C290.96,63.96,292.69,62.32,294.82,62.32 M294.82,69.18c1.56,0,2.84-1.3,2.84-3.02c0-1.68-1.28-2.93-2.84-2.93
	c-1.57,0-2.84,1.25-2.84,2.93C291.98,67.89,293.25,69.18,294.82,69.18 M304.14,69.9h0.99v-3.12c0-0.47,0.06-0.97,0.2-1.44
	c0.32-1.09,1.09-1.92,2.12-1.92c0.19,0,0.36,0.03,0.36,0.03v-0.99c0,0-0.19-0.04-0.39-0.04c-1.14,0-1.96,0.86-2.3,1.98h-0.03
	c0,0,0.03-0.27,0.03-0.59v-1.31h-0.97V69.9z M322.98,72.1c1.42,0,2.55-0.68,2.55-2.33v-0.68c0-0.28,0.03-0.53,0.03-0.53h-0.03
	c-0.44,0.83-1.17,1.3-2.31,1.3c-1.96,0-3.25-1.58-3.25-3.8c0-2.22,1.2-3.74,3.16-3.74c1.92,0,2.4,1.24,2.4,1.24h0.03
	c0,0-0.02-0.09-0.02-0.25v-0.81h0.96v7.24c0,2.36-1.71,3.27-3.49,3.27c-0.84,0-1.68-0.22-2.39-0.59c0.15-0.33,0.23-0.49,0.38-0.83
	C321.01,71.58,321.9,72.1,322.98,72.1 M325.54,66.06c0-2.17-1.01-2.83-2.3-2.83c-1.42,0-2.25,1.05-2.25,2.82
	c0,1.77,0.94,2.92,2.39,2.92C324.53,68.96,325.54,68.24,325.54,66.06 M332.52,69.9h0.99v-3.12c0-0.47,0.06-0.97,0.2-1.44
	c0.32-1.09,1.09-1.92,2.12-1.92c0.19,0,0.36,0.03,0.36,0.03v-0.99c0,0-0.19-0.04-0.39-0.04c-1.14,0-1.96,0.86-2.3,1.98h-0.03
	c0,0,0.03-0.27,0.03-0.59v-1.31h-0.97V69.9z M345.17,65.32h0.41v-0.19c0-1.43-0.77-1.92-1.81-1.92c-1.2,0-2.06,0.71-2.06,0.71
	c-0.19-0.31-0.28-0.46-0.46-0.77c0,0,0.96-0.84,2.59-0.84c1.76,0,2.73,0.99,2.73,2.84v4.75h-0.94v-0.81c0-0.37,0.03-0.62,0.03-0.62
	h-0.03c0,0-0.61,1.61-2.43,1.61c-1.22,0-2.48-0.72-2.48-2.19C340.71,65.38,343.91,65.32,345.17,65.32 M343.35,69.23
	c1.39,0,2.23-1.47,2.23-2.75v-0.32h-0.42c-1.14,0-3.43,0.04-3.43,1.68C341.73,68.52,342.26,69.23,343.35,69.23 M352.47,62.49h0.94
	v0.72c0,0.32-0.03,0.57-0.03,0.57h0.03c0,0,0.59-1.47,2.52-1.47c1.96,0,3.18,1.59,3.18,3.89c0,2.34-1.38,3.88-3.26,3.88
	c-1.76,0-2.39-1.41-2.39-1.41h-0.03c0,0,0.03,0.27,0.03,0.65v3.54h-0.98V62.49z M355.75,69.2c1.29,0,2.35-1.11,2.35-2.99
	c0-1.81-0.94-2.98-2.31-2.98c-1.22,0-2.36,0.88-2.36,2.99C353.43,67.71,354.24,69.2,355.75,69.2 M364.64,69.9h0.99v-3.55
	c0-0.35,0.03-0.69,0.11-0.99c0.33-1.24,1.41-2.11,2.65-2.11c1.41,0,1.58,1.03,1.58,2.2v4.45h0.99v-4.72c0-1.83-0.64-2.87-2.43-2.87
	c-1.65,0-2.62,1.14-2.9,1.84h-0.03c0,0,0.03-0.27,0.03-0.61v-4.01h-0.99V69.9z M376.83,59.54h1.03v1.25h-1.03V59.54z M376.86,62.49
	h0.99v7.41h-0.99V62.49z M387.16,62.31c-2.14,0-3.83,1.61-3.83,3.89c0,2.3,1.67,3.88,3.83,3.88c1.86,0,2.84-1.16,2.84-1.16
	c-0.18-0.31-0.27-0.47-0.45-0.78c0,0-0.85,1.05-2.33,1.05c-1.61,0-2.87-1.24-2.87-2.98c0-1.77,1.25-2.98,2.84-2.98
	c1.32,0,2.13,0.9,2.13,0.9c0.2-0.3,0.3-0.45,0.51-0.75C389.83,63.38,388.95,62.31,387.16,62.31 M405.75,62.32
	c1.77,0,2.38,1.4,2.38,1.4h0.03c0,0-0.03-0.25-0.03-0.56v-3.61h0.99v10.36h-0.95v-0.78c0-0.32,0.03-0.53,0.03-0.53h-0.03
	c0,0-0.6,1.49-2.51,1.49c-1.96,0-3.17-1.59-3.17-3.89C402.48,63.85,403.84,62.32,405.75,62.32 M405.8,69.18
	c1.22,0,2.36-0.88,2.36-2.99c0-1.5-0.75-2.98-2.32-2.98c-1.29,0-2.35,1.11-2.35,2.98C403.49,68.02,404.44,69.18,405.8,69.18
	 M418.21,62.31c2.01,0,3.04,1.58,3.04,3.42c0,0.18-0.03,0.51-0.03,0.51h-5.6c0.04,1.9,1.32,2.93,2.83,2.93c1.33,0,2.22-0.9,2.22-0.9
	c0.18,0.31,0.27,0.46,0.45,0.77c0,0-1.06,1.03-2.7,1.03c-2.17,0-3.81-1.59-3.81-3.88C414.62,63.77,416.24,62.31,418.21,62.31
	 M420.25,65.42c-0.06-1.55-0.99-2.27-2.07-2.27c-1.22,0-2.27,0.78-2.51,2.27H420.25z M426.71,68.28c-0.22,0.29-0.32,0.43-0.54,0.72
	c0,0,0.93,1.07,2.7,1.07c1.46,0,2.49-0.87,2.49-2.08c0-2.45-3.93-2.01-3.93-3.64c0-0.83,0.71-1.15,1.45-1.15
	c1.2,0,1.83,0.68,1.83,0.68c0.18-0.31,0.27-0.46,0.45-0.77c0,0-0.71-0.81-2.25-0.81c-1.32,0-2.49,0.72-2.49,2.05
	c0,2.42,3.93,2.02,3.93,3.64c0,0.78-0.68,1.18-1.46,1.18C427.52,69.18,426.71,68.28,426.71,68.28 M436.79,59.54h1.03v1.25h-1.03
	V59.54z M436.82,62.49h0.99v7.41h-0.99V62.49z M446.33,72.1c1.42,0,2.55-0.68,2.55-2.33v-0.68c0-0.28,0.03-0.53,0.03-0.53h-0.03
	c-0.44,0.83-1.17,1.3-2.31,1.3c-1.96,0-3.25-1.58-3.25-3.8c0-2.22,1.2-3.74,3.16-3.74c1.93,0,2.4,1.24,2.4,1.24h0.03
	c0,0-0.02-0.09-0.02-0.25v-0.81h0.96v7.24c0,2.36-1.71,3.27-3.49,3.27c-0.84,0-1.68-0.22-2.39-0.59c0.15-0.33,0.23-0.49,0.38-0.83
	C444.36,71.58,445.25,72.1,446.33,72.1 M448.89,66.06c0-2.17-1.01-2.83-2.31-2.83c-1.42,0-2.24,1.05-2.24,2.82
	c0,1.77,0.94,2.92,2.39,2.92C447.88,68.96,448.89,68.24,448.89,66.06 M455.87,69.9h0.99v-3.55c0-0.35,0.03-0.69,0.12-1
	c0.33-1.22,1.4-2.09,2.65-2.09c1.41,0,1.58,1.03,1.58,2.2v4.45h0.99v-4.72c0-1.83-0.64-2.87-2.44-2.87c-1.73,0-2.65,1.19-2.91,1.87
	h-0.03c0,0,0.03-0.27,0.03-0.59v-1.11h-0.97V69.9z M471.18,62.31c2.01,0,3.04,1.58,3.04,3.42c0,0.18-0.02,0.51-0.02,0.51h-5.6
	c0.04,1.9,1.32,2.93,2.83,2.93c1.33,0,2.22-0.9,2.22-0.9c0.18,0.31,0.27,0.46,0.45,0.77c0,0-1.06,1.03-2.7,1.03
	c-2.17,0-3.81-1.59-3.81-3.88C467.59,63.77,469.21,62.31,471.18,62.31 M473.22,65.42c-0.06-1.55-0.99-2.27-2.07-2.27
	c-1.22,0-2.28,0.78-2.51,2.27H473.22z M479.74,69.9h0.99v-3.12c0-0.47,0.06-0.97,0.2-1.44c0.32-1.09,1.09-1.92,2.11-1.92
	c0.19,0,0.36,0.03,0.36,0.03v-0.99c0,0-0.19-0.04-0.39-0.04c-1.14,0-1.96,0.86-2.3,1.98h-0.03c0,0,0.03-0.27,0.03-0.59v-1.31h-0.97
	V69.9z"/>
</svg>
